<?xml version="1.0" encoding="UTF-8"?>
<svg version="1.1" xmlns="http://www.w3.org/2000/svg" width="500" height="500">
<path d="M0 0 C0.81025222 -0.00085442 1.62050443 -0.00170885 2.45530975 -0.00258917 C5.1853877 -0.00424356 7.91540495 0.00127675 10.64547729 0.00672913 C12.59648639 0.00701103 14.5474956 0.0068532 16.49850464 0.00628662 C21.80814345 0.00599878 27.11775985 0.01189334 32.42739344 0.01886058 C37.97143091 0.02509635 43.51546884 0.02569809 49.05950928 0.02688599 C59.56382355 0.02999864 70.06812746 0.03821114 80.57243717 0.04823548 C92.52872384 0.05939865 104.485011 0.06490758 116.44130158 0.06993091 C141.04175523 0.08039381 165.64219967 0.09799198 190.24264526 0.12025452 C190.25073212 1.26093887 190.25881897 2.40162323 190.26715088 3.57687378 C190.34485153 14.360478 190.43265005 25.14395976 190.53017235 35.92740345 C190.57998164 41.47042176 190.6263124 47.01342243 190.66452026 52.55653381 C190.70156796 57.91234384 190.74797936 63.26800043 190.80070877 68.62367821 C190.81914967 70.6604256 190.83429505 72.69720576 190.84598923 74.73400307 C189.83447054 92.11068233 189.83447054 92.11068233 195.86764526 107.43275452 C198.24264526 110.12025452 198.24264526 110.12025452 198.99264526 113.12025452 C198.10996775 116.65096457 196.73693844 118.4069379 193.85592651 120.61244202 C176.09996863 130.85728468 153.19741452 132.78847501 133.24264526 135.12025452 C132.11326538 135.25850647 130.9838855 135.39675842 129.82028198 135.53919983 C79.01726079 141.62265391 27.30151848 138.33100171 -22.75735474 128.12025452 C-22.75735474 127.79025452 -22.75735474 127.46025452 -22.75735474 127.12025452 C-19.18826425 126.30814636 -15.87812503 125.9867718 -12.22077942 125.96203613 C-11.12234302 125.95226211 -10.02390661 125.94248808 -8.89218426 125.93241787 C-7.0923394 125.92376249 -7.0923394 125.92376249 -5.25613403 125.91493225 C-3.96694722 125.90489953 -2.67776041 125.89486681 -1.34950733 125.88453007 C2.13091542 125.85754092 5.61135072 125.83633258 9.09181976 125.81633759 C12.36034079 125.79667975 15.62882019 125.77178721 18.89730835 125.74732971 C28.44988449 125.67888954 38.00251921 125.61883196 47.55514526 125.55775452 C68.90202026 125.41337952 90.24889526 125.26900452 112.24264526 125.12025452 C37.49764526 124.62525452 37.49764526 124.62525452 -38.75735474 124.12025452 C-43.16911944 112.35554863 -43.16911944 112.35554863 -40.75735474 105.12025452 C-40.52272509 102.56332028 -40.34654626 100.03078929 -40.21829224 97.46791077 C-40.17634735 96.65089188 -40.13440247 95.83387299 -40.09118652 94.99209595 C-39.71807129 86.8491478 -39.62653021 78.70377709 -39.54641724 70.55384827 C-39.53192366 69.16335538 -39.51741757 67.77286262 -39.50289917 66.38237 C-39.44466102 60.63627379 -39.38882992 54.89024124 -39.35598755 49.14393616 C-39.33511291 45.58163412 -39.29993575 42.01972282 -39.25522995 38.45764351 C-39.23424582 36.46012679 -39.22902749 34.46246451 -39.22406006 32.46484375 C-39.20749359 31.26501358 -39.19092712 30.06518341 -39.17385864 28.82899475 C-39.16577179 27.77155563 -39.15768494 26.71411652 -39.14935303 25.62463379 C-39.01999359 24.79818863 -38.89063416 23.97174347 -38.75735474 23.12025452 C-35.07583359 20.66590709 -32.34762554 20.86154079 -28.09457397 20.915802 C-27.30630148 20.91777082 -26.51802898 20.91973965 -25.70586944 20.92176813 C-23.05525947 20.93054426 -20.40495103 20.95343108 -17.75442505 20.97596741 C-15.85716683 20.9846747 -13.95990363 20.99235042 -12.06263733 20.99906921 C-7.97020017 21.01470424 -3.8778335 21.03557622 0.21456146 21.05981636 C6.69627909 21.09604827 13.17789034 21.10762941 19.65969849 21.11328125 C20.7540061 21.11434578 21.84831371 21.11541032 22.97578216 21.11650711 C25.21408076 21.11864667 27.45237942 21.12073365 29.69067812 21.12276924 C44.78166188 21.13761621 59.8721691 21.16901176 74.96286011 21.26747131 C85.13937545 21.33368081 95.31517656 21.36056452 105.49190259 21.34292024 C110.8736625 21.33516415 116.25372137 21.34714649 121.63518524 21.40735054 C126.70844707 21.46382099 131.77919142 21.46816877 136.85262871 21.43425369 C138.70406192 21.43088228 140.55564614 21.44598222 142.40673256 21.48197365 C155.4953634 21.72177025 162.90676536 19.07369706 172.74280977 10.37406719 C174.75988753 8.68785716 176.95704132 7.40848593 179.24264526 6.12025452 C179.57264526 5.79025452 179.90264526 5.46025452 180.24264526 5.12025452 C171.20650517 4.01441196 162.21744005 3.90237879 153.12911987 3.81629944 C151.41140493 3.79690585 149.69369257 3.77728179 147.97598267 3.75744629 C132.34065093 3.58459471 116.70441297 3.49053883 101.06833553 3.41637707 C89.53499627 3.36050754 78.00333509 3.26574426 66.47076601 3.12071913 C58.33197514 3.02185499 50.19364305 2.96957572 42.05427939 2.95052224 C37.20659595 2.93782261 32.36109728 2.90497333 27.51408195 2.82092857 C2.50040639 1.42019941 2.50040639 1.42019941 -19.31536198 11.64922619 C-20.36456391 12.6686047 -21.39738534 13.70530401 -22.40769768 14.76323891 C-24.32577332 16.69177221 -26.29341715 17.98611099 -28.75735474 19.12025452 C-29.74735474 18.79025452 -30.73735474 18.46025452 -31.75735474 18.12025452 C-27.63368562 13.67558122 -23.04480134 10.31347456 -18.06985474 6.87025452 C-17.29835083 6.32884827 -16.52684692 5.78744202 -15.73196411 5.22962952 C-10.08146603 1.28168326 -6.97375583 -0.02656804 0 0 Z M-35.75735474 26.12025452 C-35.75735474 57.47025452 -35.75735474 88.82025452 -35.75735474 121.12025452 C27.60264526 121.12025452 90.96264526 121.12025452 156.24264526 121.12025452 C156.24264526 89.77025452 156.24264526 58.42025452 156.24264526 26.12025452 C92.88264526 26.12025452 29.52264526 26.12025452 -35.75735474 26.12025452 Z M166.24264526 119.12025452 C167.24264526 121.12025452 167.24264526 121.12025452 167.24264526 121.12025452 Z M165.24264526 121.12025452 C166.24264526 123.12025452 166.24264526 123.12025452 166.24264526 123.12025452 Z " fill="#4CCC8E" transform="translate(184.75735473632813,289.87974548339844)"/>
<path d="M0 0 C15.61564205 10.3279692 32.36706922 38.98654136 36.6015625 56.9765625 C36.92136675 58.67882764 37.2235324 60.38454789 37.50390625 62.09375 C37.92524837 64.55243727 37.92524837 64.55243727 39.59765625 67.4921875 C41.51865473 71.42150258 41.65881938 75.11834161 40.34375 79.30859375 C39.6952018 81.62656101 39.6952018 81.62656101 41.78515625 84.6171875 C46.62215182 90.85331402 53.56309819 94.62703938 60.47265625 98.1796875 C75.54874809 106.22878738 82.76930458 119.47663792 90.24194336 134.16894531 C90.69577393 135.05936523 91.14960449 135.94978516 91.6171875 136.8671875 C92.02300049 137.67285156 92.42881348 138.47851562 92.84692383 139.30859375 C93.93415163 141.44522073 93.93415163 141.44522073 95.97265625 143.3046875 C97.00390625 143.5109375 98.03515625 143.7171875 99.09765625 143.9296875 C106.34336563 145.90305118 110.7865562 152.56993096 114.41015625 158.7421875 C116.80861571 163.48653745 118.59412475 167.92213832 117.97265625 173.3046875 C115.30487867 178.85366487 111.05743016 182.21500195 106.03515625 185.6171875 C102.72024158 186.72215906 100.46137277 186.7698497 96.97265625 186.3046875 C88.49543916 181.8367354 81.91333044 173.33328306 76.97265625 165.3046875 C71.67780624 166.54159918 67.21793048 167.80755586 62.97265625 171.3046875 C56.03525643 176.88235696 48.41121517 177.62701276 39.734375 177.80078125 C33.73088795 176.72236137 30.49804642 171.7870296 27.16015625 167.0546875 C26.7307373 166.4469751 26.30131836 165.8392627 25.85888672 165.21313477 C19.09834739 155.37746295 14.13963627 144.95080757 10.89453125 133.46484375 C8.22289656 124.30657058 4.88490186 113.21693311 -2.02734375 106.3046875 C-3.28546875 106.0365625 -4.54359375 105.7684375 -5.83984375 105.4921875 C-11.24270239 104.24161624 -13.73950237 101.04950486 -16.96484375 96.6796875 C-18.89144187 94.13582606 -18.89144187 94.13582606 -21.83984375 92.9921875 C-29.09243951 89.15257798 -33.37676681 81.60417216 -37.27734375 74.6171875 C-37.7347998 73.80918701 -38.19225586 73.00118652 -38.66357422 72.16870117 C-40.13255556 69.55509477 -41.58175643 66.93129777 -43.02734375 64.3046875 C-43.54006836 63.38171875 -44.05279297 62.45875 -44.58105469 61.5078125 C-46.12223079 58.72002611 -47.64108341 55.92128773 -49.15234375 53.1171875 C-49.62575195 52.25714111 -50.09916016 51.39709473 -50.58691406 50.51098633 C-53.30708519 45.37327567 -55.30367674 41.18577443 -55.02734375 35.3046875 C-51.89887747 29.57819749 -46.05971171 25.73930018 -40.83984375 22.0546875 C-40.06318359 21.50039062 -39.28652344 20.94609375 -38.48632812 20.375 C-30.64131996 14.87281653 -22.45308723 10.02960116 -14.05810547 5.42041016 C-12.27984813 4.44341616 -10.51383381 3.44420569 -8.75 2.44140625 C-7.87214844 1.96316406 -6.99429688 1.48492187 -6.08984375 0.9921875 C-5.02443359 0.41017578 -5.02443359 0.41017578 -3.9375 -0.18359375 C-2.02734375 -0.6953125 -2.02734375 -0.6953125 0 0 Z M16.97265625 61.2421875 C15.97842651 61.85126953 15.97842651 61.85126953 14.96411133 62.47265625 C4.04954019 69.26266427 -5.93209392 77.20943767 -15.02734375 86.3046875 C-15.02734375 92.60605357 -12.40490167 96.83423711 -8.02734375 101.3046875 C-7.36734375 101.3046875 -6.70734375 101.3046875 -6.02734375 101.3046875 C-5.78113281 100.56476563 -5.53492188 99.82484375 -5.28125 99.0625 C0.16554796 87.08293813 19.34820046 77.39627055 30.97265625 72.3046875 C33.97265625 71.5546875 33.97265625 71.5546875 35.97265625 71.3046875 C34.62837597 65.92756637 32.02478992 61.12416277 27.97265625 57.3046875 C23.28833558 57.3046875 20.81067032 58.85846089 16.97265625 61.2421875 Z M35.97265625 71.3046875 C36.97265625 75.3046875 36.97265625 75.3046875 36.97265625 75.3046875 Z M11.66015625 87.8671875 C10.97880615 88.32585205 10.29745605 88.7845166 9.59545898 89.25708008 C5.6361429 91.97628094 2.25426084 94.79457659 -1.02734375 98.3046875 C-0.62515625 99.00078125 -0.62515625 99.00078125 -0.21484375 99.7109375 C7.27749965 112.92112191 13.64360746 126.00514797 17.625 140.71484375 C20.85179592 151.99808438 28.89997305 164.86212342 37.97265625 172.3046875 C40.60497661 173.33240742 42.10969634 173.42651558 44.97265625 173.3046875 C44.97265625 172.6446875 44.97265625 171.9846875 44.97265625 171.3046875 C44.33972656 171.21960938 43.70679688 171.13453125 43.0546875 171.046875 C40.97265625 170.3046875 40.97265625 170.3046875 40.171875 168.625 C39.91857422 167.53832031 39.91857422 167.53832031 39.66015625 166.4296875 C38.17049826 161.22836771 35.53313927 157.22539369 32.49609375 152.78515625 C31.11519923 150.53677671 30.4166455 148.8786252 29.97265625 146.3046875 C34.83380712 149.97708532 37.85343577 153.70640643 41.03515625 158.8671875 C43.88025095 163.46518415 46.34085071 167.28493193 50.97265625 170.3046875 C54.09959397 170.80563773 54.09959397 170.80563773 56.97265625 170.3046875 C57.63265625 169.6446875 58.29265625 168.9846875 58.97265625 168.3046875 C58.76945813 163.1118466 56.5317559 159.58358818 53.66015625 155.4296875 C50.37646529 150.52004093 47.4471405 145.68400109 44.97265625 140.3046875 C49.33642693 144.25935468 52.60663644 148.790616 56.0078125 153.5859375 C59.34593201 158.6522099 59.34593201 158.6522099 63.97265625 162.3046875 C66.30564285 162.34491141 68.63972291 162.34788997 70.97265625 162.3046875 C71.87991992 159.30373843 72.16573886 157.78025674 70.96875 154.83203125 C70.45441406 153.97738281 69.94007813 153.12273437 69.41015625 152.2421875 C66.9953108 148.09114169 64.72953338 143.92164586 62.59765625 139.6171875 C62.09492188 138.60269531 61.5921875 137.58820313 61.07421875 136.54296875 C60.71070313 135.80433594 60.3471875 135.06570312 59.97265625 134.3046875 C60.63265625 133.9746875 61.29265625 133.6446875 61.97265625 133.3046875 C62.86404297 134.86703125 62.86404297 134.86703125 63.7734375 136.4609375 C68.23500735 144.20974031 72.82781935 151.86143333 77.78515625 159.3046875 C78.22835205 159.99240234 78.67154785 160.68011719 79.12817383 161.38867188 C81.064588 164.2393525 82.34178654 166.07528033 85.63671875 167.2734375 C88.21291549 167.30790167 90.45468259 166.82119492 92.97265625 166.3046875 C95.28515625 166.7421875 95.28515625 166.7421875 96.97265625 167.3046875 C95.71865687 163.99093517 94.30703506 160.99567242 92.46875 157.96875 C91.97938965 157.15873535 91.4900293 156.3487207 90.98583984 155.51416016 C90.46586426 154.66128418 89.94588867 153.8084082 89.41015625 152.9296875 C88.61085693 151.60590088 88.61085693 151.60590088 87.79541016 150.25537109 C85.29540287 146.11662811 82.78006859 141.98761182 80.25 137.8671875 C79.63717163 136.86244385 79.63717163 136.86244385 79.01196289 135.83740234 C78.25998265 134.60528374 77.50299833 133.37619894 76.73999023 132.15087891 C74.60150926 128.64191632 73.12774693 125.24628558 71.97265625 121.3046875 C75.91056315 124.804034 78.35302244 128.89964528 81.03515625 133.3671875 C81.89717574 134.7979093 82.76293758 136.2263844 83.6328125 137.65234375 C84.19947632 138.59605835 84.19947632 138.59605835 84.77758789 139.55883789 C86.01574134 141.36762958 87.37808154 142.80673625 88.97265625 144.3046875 C88.46840381 138.63184756 86.23898107 134.53167225 83.47265625 129.6796875 C82.79771118 128.49088989 82.79771118 128.49088989 82.10913086 127.27807617 C75.66833986 116.12798689 69.58325684 107.51500875 57.97265625 101.3046875 C56.95816406 100.74910156 55.94367188 100.19351563 54.8984375 99.62109375 C53.0029036 98.58784194 51.09998989 97.56792535 49.1875 96.56640625 C46.97265625 95.3046875 46.97265625 95.3046875 44.97265625 93.3046875 C44.31007812 93.17191406 43.6475 93.03914063 42.96484375 92.90234375 C40.97265625 92.3046875 40.97265625 92.3046875 39.91796875 90.73828125 C39.64726562 90.07957031 39.3765625 89.42085937 39.09765625 88.7421875 C37.00305337 84.12738514 34.28731891 80.13949723 30.97265625 76.3046875 C25.11068813 76.3046875 16.5162665 84.56512146 11.66015625 87.8671875 Z M89.97265625 169.3046875 C89.67657928 172.91456815 89.67657928 172.91456815 91.16015625 176.1171875 C93.5324815 177.67146956 95.1930697 177.53005938 97.97265625 177.3046875 C97.43191252 173.51948137 95.89692879 171.71291195 92.97265625 169.3046875 C91.98265625 169.3046875 90.99265625 169.3046875 89.97265625 169.3046875 Z " fill="#4DCA8E" transform="translate(106.02734375,70.6953125)"/>
<path d="M0 0 C15.54954111 1.85650146 28.63131749 13.46141111 39.37255859 23.87841797 C40.50056885 24.95313354 40.50056885 24.95313354 41.65136719 26.04956055 C44.94778688 29.35550747 46.89628573 31.48377154 48.23193359 36.02685547 C47.88565699 46.2420154 35.91614655 55.04181841 28.91894531 61.61669922 C22.52666747 67.4408132 15.94601598 71.05600556 7.88427734 74.11279297 C5.09972062 75.17870557 5.09972062 75.17870557 2.64208984 76.76904297 C0.12255859 78.25341797 0.12255859 78.25341797 -2.88134766 79.12451172 C-6.59667569 80.52442019 -8.2238158 82.33003416 -10.81494141 85.31591797 C-11.67732422 86.30333984 -12.53970703 87.29076172 -13.42822266 88.30810547 C-15.51253492 90.81459901 -17.52817868 93.34772162 -19.50244141 95.94091797 C-28.40363373 107.55386888 -38.2097187 114.89931568 -52.61572266 118.23388672 C-56.25556285 119.37160922 -58.803591 121.02064934 -61.87744141 123.25341797 C-62.86744141 123.91341797 -63.85744141 124.57341797 -64.87744141 125.25341797 C-56.29744141 124.92341797 -47.71744141 124.59341797 -38.87744141 124.25341797 C-39.33206542 134.34607108 -40.11226146 144.33909305 -41.25244141 154.37841797 C-41.36628174 155.44439209 -41.48012207 156.51036621 -41.59741211 157.60864258 C-43.13104268 170.5580503 -43.13104268 170.5580503 -48.18994141 175.52294922 C-51.01680431 177.34315309 -53.76136352 178.68097321 -56.87744141 179.94091797 C-57.88806641 180.35728516 -58.89869141 180.77365234 -59.93994141 181.20263672 C-77.96923849 187.65194645 -98.24921223 180.94204224 -114.87011719 173.34228516 C-119.59993862 171.09576578 -124.24218873 168.68767182 -128.87744141 166.25341797 C-130.28498853 165.52163759 -131.69254067 164.78986688 -133.10009766 164.05810547 C-138.85469304 161.04933427 -144.58428151 158.0066427 -150.22509766 154.78857422 C-150.93279297 154.38501709 -151.64048828 153.98145996 -152.36962891 153.56567383 C-153.69984315 152.80283988 -155.02696001 152.03456492 -156.35009766 151.25952148 C-160.7277017 148.74089204 -165.11046765 146.928443 -169.87744141 145.25341797 C-169.47760514 139.1059354 -166.49392424 134.81486068 -163.37744141 129.69091797 C-157.20332721 119.26305071 -152.36044389 108.49707742 -147.87744141 97.25341797 C-142.1258678 97.75583704 -137.90253936 99.3986806 -132.81494141 102.06591797 C-132.13367188 102.40945312 -131.45240234 102.75298828 -130.75048828 103.10693359 C-126.58974485 105.2372662 -122.71678045 107.58804219 -118.87744141 110.25341797 C-118.70728516 109.04685547 -118.53712891 107.84029297 -118.36181641 106.59716797 C-118.11773522 104.98247708 -117.87290334 103.36789954 -117.62744141 101.75341797 C-117.51787109 100.96193359 -117.40830078 100.17044922 -117.29541016 99.35498047 C-115.46503 87.60201316 -109.88424454 81.69057076 -100.87744141 74.25341797 C-100.29510742 73.7684082 -99.71277344 73.28339844 -99.11279297 72.78369141 C-97.29546358 71.28013149 -95.46518104 69.79444287 -93.62744141 68.31591797 C-92.77883545 67.62502075 -92.77883545 67.62502075 -91.91308594 66.92016602 C-83.10292196 59.98726244 -74.15551564 59.24338176 -63.27587891 57.88037109 C-53.09640208 56.5104978 -42.86443942 54.45517569 -33.87744141 49.25341797 C-32.57150731 46.15612585 -32.57150731 46.15612585 -32.00244141 42.50341797 C-28.49462431 26.93641706 -19.37940835 14.98179889 -8.87744141 3.25341797 C-8.40064941 2.69807373 -7.92385742 2.14272949 -7.43261719 1.57055664 C-5.14069911 -0.37055765 -2.89422723 -0.1169318 0 0 Z M-7.87744141 8.25341797 C-18.43278668 19.06152125 -18.43278668 19.06152125 -23.87744141 32.25341797 C-23.15041016 32.38876953 -22.42337891 32.52412109 -21.67431641 32.66357422 C-10.03739918 35.15506803 0.86736063 40.53984714 8.12255859 50.25341797 C11.08106344 55.09933452 13.62765311 60.15744082 16.12255859 65.25341797 C20.62141191 63.81971746 23.63026478 61.32183933 26.99755859 58.12841797 C27.5205957 57.63776855 28.04363281 57.14711914 28.58251953 56.64160156 C36.42675969 50.16372566 36.42675969 50.16372566 40.29443359 41.52685547 C40.23771484 40.77662109 40.18099609 40.02638672 40.12255859 39.25341797 C41.11255859 39.25341797 42.10255859 39.25341797 43.12255859 39.25341797 C42.29907325 33.2831492 39.16361398 30.48508917 35.12255859 26.25341797 C34.45998047 25.52767578 33.79740234 24.80193359 33.11474609 24.05419922 C24.61453951 15.06781846 14.34915844 7.17228905 2.12255859 4.25341797 C-2.52200841 4.25341797 -4.53198315 5.26322961 -7.87744141 8.25341797 Z M-26.25244141 39.00341797 C-28.1755838 42.24410102 -28.1755838 42.24410102 -27.87744141 46.25341797 C-27.33216797 46.37716797 -26.78689453 46.50091797 -26.22509766 46.62841797 C-16.60076228 49.26071482 -10.19478045 55.76480635 -4.95556641 64.06982422 C-3.4280538 67.1635907 -3.16215367 69.83687075 -2.87744141 73.25341797 C-2.21744141 73.58341797 -1.55744141 73.91341797 -0.87744141 74.25341797 C3.98057545 71.27236217 8.09734161 68.48760763 9.88037109 62.86279297 C10.39031447 57.36856434 5.68919074 53.21080363 2.43115234 49.14013672 C-3.42081456 42.63092947 -12.32887453 36.86111815 -21.15869141 35.89404297 C-24.17907303 35.98686002 -24.17907303 35.98686002 -26.25244141 39.00341797 Z M-35.43994141 54.56591797 C-44.338207 58.68449683 -53.04679201 60.6554178 -62.77587891 61.88232422 C-82.02740097 64.34828613 -96.33010905 72.30500026 -108.68994141 87.56591797 C-113.27894073 94.47099532 -113.43888984 102.17117185 -112.87744141 110.25341797 C-112.54744141 111.24341797 -112.21744141 112.23341797 -111.87744141 113.25341797 C-106.63791364 112.62966466 -102.43352329 111.21548082 -98.21337891 107.97607422 C-96.37673932 105.60777581 -96.57474982 104.02250194 -96.68994141 101.06591797 C-96.71701172 100.16486328 -96.74408203 99.26380859 -96.77197266 98.33544922 C-96.80677734 97.64837891 -96.84158203 96.96130859 -96.87744141 96.25341797 C-96.27931641 96.41841797 -95.68119141 96.58341797 -95.06494141 96.75341797 C-92.76399805 97.36483037 -92.76399805 97.36483037 -89.87744141 97.25341797 C-88.18945314 95.81591606 -88.18945314 95.81591606 -86.87744141 94.25341797 C-86.21744141 96.23341797 -85.55744141 98.21341797 -84.87744141 100.25341797 C-82.40244141 99.75841797 -82.40244141 99.75841797 -79.87744141 99.25341797 C-78.7472754 94.23045793 -79.09828049 90.27467723 -79.87744141 85.25341797 C-76.90744141 84.75841797 -76.90744141 84.75841797 -73.87744141 84.25341797 C-75.42810003 99.64428341 -75.42810003 99.64428341 -80.87744141 104.25341797 C-84.43555152 106.49853534 -88.08328816 108.43940074 -91.87744141 110.25341797 C-91.72275391 110.84380859 -91.56806641 111.43419922 -91.40869141 112.04248047 C-90.60364441 115.39289663 -90.40223142 117.80814557 -90.87744141 121.25341797 C-92.95554429 123.62765051 -95.2942866 125.45443516 -97.87744141 127.25341797 C-93.89318267 128.58150422 -92.14713267 127.59911532 -88.18994141 126.25341797 C-87.52712158 126.02920166 -86.86430176 125.80498535 -86.18139648 125.57397461 C-81.33426003 123.88724632 -76.71563844 121.85129047 -72.06494141 119.69091797 C-66.31578549 117.02879958 -60.77720646 115.40562839 -54.56494141 114.19091797 C-33.27529975 109.87823972 -21.92346312 94.20139822 -10.09155273 77.15356445 C-7.61367064 73.35717339 -7.61367064 73.35717339 -6.87744141 69.00341797 C-8.40980111 64.78942879 -11.0134 61.66452346 -13.87744141 58.25341797 C-14.44076172 57.57021484 -15.00408203 56.88701172 -15.58447266 56.18310547 C-16.15552734 55.54630859 -16.72658203 54.90951172 -17.31494141 54.25341797 C-17.82927734 53.67591797 -18.34361328 53.09841797 -18.87353516 52.50341797 C-24.44683475 49.0268958 -30.13775854 51.94240104 -35.43994141 54.56591797 Z M-139.87744141 109.25341797 C-148.62968701 123.28345229 -148.62968701 123.28345229 -152.93994141 138.71435547 C-151.25069405 142.75115982 -147.98471759 144.08406116 -144.25244141 146.12841797 C-143.49568115 146.55678955 -142.7389209 146.98516113 -141.95922852 147.42651367 C-136.87011233 150.26558203 -131.69964191 152.93252536 -126.43994141 155.44091797 C-125.80813965 155.74433105 -125.17633789 156.04774414 -124.52539062 156.36035156 C-123.00469552 157.0575292 -121.4433827 157.66486201 -119.87744141 158.25341797 C-119.21744141 157.92341797 -118.55744141 157.59341797 -117.87744141 157.25341797 C-118.35181641 156.51091797 -118.82619141 155.76841797 -119.31494141 155.00341797 C-122.92505938 148.64961034 -122.58284044 141.37494647 -121.87744141 134.25341797 C-120.58100024 130.35049543 -118.91576271 126.82048025 -116.87744141 123.25341797 C-127.36365443 113.77352027 -127.36365443 113.77352027 -139.87744141 109.25341797 Z M-107.87744141 120.25341797 C-107.21744141 122.23341797 -106.55744141 124.21341797 -105.87744141 126.25341797 C-100.96244334 125.09694784 -97.50235103 123.98817334 -93.87744141 120.25341797 C-93.87744141 118.93341797 -93.87744141 117.61341797 -93.87744141 116.25341797 C-99.92775047 113.22826344 -103.89454539 115.42566522 -107.87744141 120.25341797 Z M-75.87744141 132.25341797 C-75.71880615 132.87200684 -75.5601709 133.4905957 -75.39672852 134.12792969 C-73.91758074 140.18221297 -74.29396803 144.89668752 -77.37744141 150.37841797 C-83.01583661 158.8491846 -88.92188043 163.1113403 -98.87744141 165.25341797 C-96.35238934 168.29042218 -93.78289763 169.19054265 -90.06494141 170.37841797 C-89.04787109 170.71099609 -88.03080078 171.04357422 -86.98291016 171.38623047 C-81.59057458 172.89201474 -76.47057347 173.42982413 -70.87744141 173.50341797 C-69.70181641 173.52919922 -68.52619141 173.55498047 -67.31494141 173.58154297 C-62.59711479 173.13120497 -59.32681252 171.80945275 -56.07275391 168.31591797 C-52.25344907 161.72574491 -52.53561938 153.17879153 -52.06494141 145.75341797 C-51.99968262 144.85623047 -51.93442383 143.95904297 -51.8671875 143.03466797 C-51.82287598 142.18904297 -51.77856445 141.34341797 -51.73291016 140.47216797 C-51.68803467 139.70839844 -51.64315918 138.94462891 -51.59692383 138.15771484 C-51.68949463 137.52929688 -51.78206543 136.90087891 -51.87744141 136.25341797 C-54.98869141 134.1792513 -56.16513821 133.92597703 -59.76416016 133.62060547 C-60.70195312 133.53681641 -61.63974609 133.45302734 -62.60595703 133.36669922 C-63.58242188 133.28806641 -64.55888672 133.20943359 -65.56494141 133.12841797 C-67.04704102 132.99886719 -67.04704102 132.99886719 -68.55908203 132.86669922 C-70.99798455 132.65462074 -73.43728929 132.45050596 -75.87744141 132.25341797 Z " fill="#4FC88E" transform="translate(401.87744140625,77.74658203125)"/>
<path d="M0 0 C0.99 0.495 0.99 0.495 2 1 C-0.3125 3.5 -0.3125 3.5 -3 6 C-3.99 6 -4.98 6 -6 6 C-6 6.99 -6 7.98 -6 9 C-7.32 9 -8.64 9 -10 9 C-10.33 9.99 -10.66 10.98 -11 12 C-12.65 12 -14.3 12 -16 12 C-16 12.99 -16 13.98 -16 15 C-79.03 15 -142.06 15 -207 15 C-207 46.35 -207 77.7 -207 110 C-143.64 110 -80.28 110 -15 110 C-14.67 108.68 -14.34 107.36 -14 106 C-12 109 -12 109 -12 112 C-11.67 112.66 -11.34 113.32 -11 114 C-12.62490954 114.02698189 -14.24994633 114.04638757 -15.875 114.0625 C-17.23238281 114.07990234 -17.23238281 114.07990234 -18.6171875 114.09765625 C-21 114 -21 114 -23 113 C-23.33 113.66 -23.66 114.32 -24 115 C-24.66 115 -25.32 115 -26 115 C-26 114.34 -26 113.68 -26 113 C-86.72 113 -147.44 113 -210 113 C-214.41176471 101.23529412 -214.41176471 101.23529412 -212 94 C-211.76537035 91.44306576 -211.58919152 88.91053477 -211.4609375 86.34765625 C-211.41899261 85.53063736 -211.37704773 84.71361847 -211.33383179 83.87184143 C-210.96071655 75.72889328 -210.86917547 67.58352257 -210.7890625 59.43359375 C-210.77456893 58.04310086 -210.76006283 56.65260811 -210.74554443 55.26211548 C-210.68730629 49.51601927 -210.63147519 43.76998672 -210.59863281 38.02368164 C-210.57775817 34.46137961 -210.54258102 30.8994683 -210.49787521 27.33738899 C-210.47689108 25.33987227 -210.47167275 23.34221 -210.46670532 21.34458923 C-210.45013885 20.14475906 -210.43357239 18.94492889 -210.41650391 17.70874023 C-210.40841705 16.65130112 -210.4003302 15.593862 -210.39199829 14.50437927 C-210.19795914 13.26471153 -210.19795914 13.26471153 -210 12 C-206.3162349 9.5441566 -203.57390251 9.73575779 -199.31703186 9.78208923 C-198.13144807 9.78292577 -198.13144807 9.78292577 -196.92191309 9.7837792 C-194.26431716 9.78785936 -191.60699893 9.8060701 -188.94946289 9.82397461 C-187.04733531 9.8294085 -185.14520463 9.83383993 -183.24307251 9.83734131 C-179.14081219 9.84618727 -175.03861835 9.86047961 -170.93638802 9.87843132 C-164.44287701 9.90510993 -157.94947616 9.90929346 -151.45591736 9.90834045 C-149.23235035 9.90826475 -147.00878334 9.90819903 -144.78521633 9.90814304 C-143.11457522 9.90806852 -143.11457522 9.90806852 -141.41018379 9.90799248 C-126.29113601 9.90892797 -111.17236735 9.92761284 -96.0534668 9.99633789 C-85.8583344 10.04250414 -75.66369694 10.05660613 -65.46847719 10.03448874 C-60.07531017 10.02412109 -54.6832786 10.03014562 -49.29026985 10.07563591 C-44.20986585 10.11831727 -39.13116554 10.11878113 -34.05069351 10.08778381 C-32.19319418 10.0838556 -30.33558603 10.09513042 -28.47829628 10.12330818 C-17.36135959 10.28191864 -10.46867892 9.40978335 -1.94946957 1.93071842 C-1.30614461 1.29358134 -0.66281965 0.65644426 0 0 Z " fill="#56C593" transform="translate(356,301)"/>
<path d="M0 0 C4.19117719 0.01041069 8.38236085 0.01483479 12.57354736 0.01983643 C20.73046557 0.03041593 28.88735321 0.04737851 37.04425049 0.06866455 C35.89163781 3.52650257 35.2389329 3.87484921 32.23175049 5.69366455 C31.54468018 6.11905518 30.85760986 6.5444458 30.14971924 6.98272705 C25.4649461 9.39899223 20.75999554 9.21112693 15.59136963 9.19805908 C14.74050278 9.1998114 13.88963593 9.20156372 13.01298523 9.20336914 C10.20177162 9.20776844 7.39062099 9.20485614 4.57940674 9.20147705 C2.62411995 9.2021507 0.66883325 9.20312124 -1.28645325 9.20437622 C-5.38447873 9.20585064 -9.48248242 9.20370706 -13.58050537 9.19903564 C-18.83069313 9.19334229 -24.08082972 9.1966165 -29.33101559 9.20260811 C-33.3690479 9.20622382 -37.40706811 9.20507041 -41.44510078 9.20248032 C-43.38077361 9.20181365 -45.31644753 9.20263038 -47.25211906 9.20495987 C-49.95926696 9.2075025 -52.66633236 9.20362285 -55.37347412 9.19805908 C-56.57138077 9.20109543 -56.57138077 9.20109543 -57.79348755 9.20419312 C-61.63843985 9.18957204 -65.2183327 9.00494283 -68.95574951 8.06866455 C-68.70574951 6.19366455 -68.70574951 6.19366455 -67.95574951 4.06866455 C-53.21533872 -6.30421712 -17.72267712 -0.04883007 0 0 Z " fill="#4CCB8E" transform="translate(273.95574951171875,297.93133544921875)"/>
<path d="M0 0 C1.20597336 -0.00137466 2.41194672 -0.00274933 3.65446472 -0.00416565 C4.99786402 -0.00062629 6.34126306 0.00300852 7.68466187 0.00672913 C9.09380593 0.00701108 10.50295014 0.0068531 11.91209412 0.00628662 C15.74451088 0.00599897 19.57689653 0.01189053 23.40930605 0.01886058 C27.41184616 0.02509944 31.41438693 0.02569834 35.41693115 0.02688599 C42.99943005 0.02999773 50.58191457 0.03820901 58.16440713 0.04823548 C66.79548442 0.05940148 75.42656238 0.06490829 84.05764508 0.06993091 C101.8153242 0.08039174 119.57298992 0.09798816 137.33065796 0.12025452 C137.33065796 0.45025452 137.33065796 0.78025452 137.33065796 1.12025452 C131.39065796 1.45025452 125.45065796 1.78025452 119.33065796 2.12025452 C119.33065796 2.45025452 119.33065796 2.78025452 119.33065796 3.12025452 C118.70726563 3.11434673 118.08387331 3.10843895 117.44159031 3.10235214 C102.19705852 2.96206892 86.95377977 2.8893387 71.70868778 2.88965988 C64.33576653 2.88822531 56.96419483 2.86482797 49.59164429 2.78773499 C43.15746853 2.72051227 36.72474785 2.69652558 30.29024881 2.72215962 C26.88980565 2.73425705 23.49236235 2.72627237 20.09236336 2.66629791 C3.55144173 2.42189315 -7.6249021 3.3746015 -20.13853645 14.7661972 C-22.17873027 16.57082829 -24.20341973 17.96224919 -26.66934204 19.12025452 C-27.65934204 18.79025452 -28.64934204 18.46025452 -29.66934204 18.12025452 C-25.54567293 13.67558122 -20.95678864 10.31347456 -15.98184204 6.87025452 C-15.21033813 6.32884827 -14.43883423 5.78744202 -13.64395142 5.22962952 C-8.72984905 1.79619555 -6.11740233 -0.00535674 0 0 Z " fill="#64BF93" transform="translate(182.66934204101563,289.87974548339844)"/>
<path d="M0 0 C1.5 1.3125 1.5 1.3125 3 3 C3 3.99 3 4.98 3 6 C3.33 6.66 3.66 7.32 4 8 C2.37509046 8.02698189 0.75005367 8.04638757 -0.875 8.0625 C-2.23238281 8.07990234 -2.23238281 8.07990234 -3.6171875 8.09765625 C-6 8 -6 8 -8 7 C-8.33 7.66 -8.66 8.32 -9 9 C-9.66 9 -10.32 9 -11 9 C-11 8.34 -11 7.68 -11 7 C-51.26 7 -91.52 7 -133 7 C-133 6.67 -133 6.34 -133 6 C-150.49 5.67 -167.98 5.34 -186 5 C-186 4.67 -186 4.34 -186 4 C-124.62 4 -63.24 4 0 4 C0 2.68 0 1.36 0 0 Z " fill="#64B998" transform="translate(341,407)"/>
<path d="M0 0 C0.75410156 0.00451172 1.50820312 0.00902344 2.28515625 0.01367188 C4.14847127 0.02546501 6.01174555 0.04340058 7.875 0.0625 C7.875 0.7225 7.875 1.3825 7.875 2.0625 C9.52204422 2.05583817 9.52204422 2.05583817 11.20236206 2.04904175 C21.53246009 2.00856032 31.8625421 1.97854676 42.19270134 1.95887566 C47.50398938 1.94842271 52.81521356 1.93423603 58.12646484 1.91162109 C63.24872595 1.88994648 68.3709255 1.87794277 73.49322891 1.87274551 C75.4509287 1.86904006 77.40862498 1.86180459 79.36629868 1.85103989 C82.10088221 1.83659643 84.8352089 1.83451904 87.56982422 1.83544922 C88.38549866 1.82825867 89.2011731 1.82106812 90.04156494 1.81365967 C95.64689568 1.83439568 95.64689568 1.83439568 97.875 4.0625 C56.955 4.0625 16.035 4.0625 -26.125 4.0625 C-26.455 3.4025 -26.785 2.7425 -27.125 2.0625 C-25.31902344 1.97162109 -25.31902344 1.97162109 -23.4765625 1.87890625 C-21.90102923 1.79450268 -20.32550904 1.70985459 -18.75 1.625 C-17.9559375 1.58568359 -17.161875 1.54636719 -16.34375 1.50585938 C-10.68174136 1.19396907 -5.73541563 -0.06438722 0 0 Z " fill="#4CCC8E" transform="translate(196.125,310.9375)"/>
<path d="M0 0 C4.19117719 0.01041069 8.38236085 0.01483479 12.57354736 0.01983643 C20.73046557 0.03041593 28.88735321 0.04737851 37.04425049 0.06866455 C37.04425049 0.72866455 37.04425049 1.38866455 37.04425049 2.06866455 C11.96425049 2.06866455 -13.11574951 2.06866455 -38.95574951 2.06866455 C-39.28574951 2.72866455 -39.61574951 3.38866455 -39.95574951 4.06866455 C-39.95574951 3.40866455 -39.95574951 2.74866455 -39.95574951 2.06866455 C-41.53907481 3.31750725 -41.53907481 3.31750725 -42.95574951 5.06866455 C-42.95574951 6.38866455 -42.95574951 7.70866455 -42.95574951 9.06866455 C-46.35156467 9.09781895 -49.74734737 9.11551523 -53.14324951 9.13116455 C-54.10295654 9.13954346 -55.06266357 9.14792236 -56.05145264 9.15655518 C-56.98280029 9.15977783 -57.91414795 9.16300049 -58.87371826 9.1663208 C-59.72731934 9.17155762 -60.58092041 9.17679443 -61.46038818 9.18218994 C-64.04821698 9.06445778 -66.43236904 8.63973499 -68.95574951 8.06866455 C-68.70574951 6.19366455 -68.70574951 6.19366455 -67.95574951 4.06866455 C-53.21533872 -6.30421712 -17.72267712 -0.04883007 0 0 Z " fill="#58C591" transform="translate(273.95574951171875,297.93133544921875)"/>
<path d="M0 0 C1.40508064 0.01055923 1.40508064 0.01055923 2.83854675 0.02133179 C4.38465889 0.04075081 4.38465889 0.04075081 5.96200562 0.06056213 C7.58641319 0.07497345 7.58641319 0.07497345 9.24363708 0.0896759 C12.83651042 0.12275547 16.42926554 0.16305368 20.02206421 0.2033844 C22.5078489 0.22767676 24.99363801 0.25152075 27.47943115 0.27493286 C33.36199978 0.33142373 39.24450781 0.39244937 45.12700784 0.4556542 C52.48000248 0.53438243 59.83306261 0.60610183 67.18612671 0.67799377 C80.30597895 0.80711956 93.42575895 0.94250385 106.54550171 1.08229065 C106.54550171 1.41229065 106.54550171 1.74229065 106.54550171 2.08229065 C105.99757178 2.07730466 105.44964186 2.07231867 104.88510799 2.06718159 C91.48565741 1.94908475 78.08716595 1.89354647 64.68717861 1.90350819 C58.20653159 1.90647636 51.72727505 1.88940908 45.24691772 1.82521057 C38.98284568 1.76391418 32.72077834 1.75700182 26.4564991 1.78645897 C24.07687211 1.78835012 21.69714543 1.77124347 19.31780815 1.7340641 C3.46900493 1.50234471 -5.78610449 3.13796094 -17.45449829 14.08229065 C-20.07437082 15.9927383 -22.59457407 17.54233145 -25.45449829 19.08229065 C-26.44449829 18.75229065 -27.43449829 18.42229065 -28.45449829 18.08229065 C-24.33082918 13.63761735 -19.74194489 10.27551069 -14.76699829 6.83229065 C-13.99549438 6.2908844 -13.22399048 5.74947815 -12.42910767 5.19166565 C-4.92690562 -0.05004757 -4.92690562 -0.05004757 0 0 Z " fill="#54C590" transform="translate(181.45449829101563,289.91770935058594)"/>
<path d="M0 0 C2.56315016 0.00502865 5.12630128 0.00958912 7.68945312 0.01367188 C13.89715684 0.02456101 20.10482375 0.04118937 26.3125 0.0625 C26.3125 0.3925 26.3125 0.7225 26.3125 1.0625 C22.6825 1.0625 19.0525 1.0625 15.3125 1.0625 C15.3125 1.7225 15.3125 2.3825 15.3125 3.0625 C16.3025 3.0625 17.2925 3.0625 18.3125 3.0625 C18.3125 3.7225 18.3125 4.3825 18.3125 5.0625 C17.5943512 4.99398331 16.87620239 4.92546661 16.1362915 4.85487366 C8.59960916 4.17591552 1.11137526 3.86129747 -6.453125 3.74609375 C-7.61253601 3.72531265 -8.77194702 3.70453156 -9.9664917 3.68312073 C-13.62344173 3.61840783 -17.28045555 3.55910911 -20.9375 3.5 C-23.43620417 3.45674011 -25.9349022 3.41312361 -28.43359375 3.36914062 C-34.51816426 3.26280827 -40.6027964 3.16090556 -46.6875 3.0625 C-47.0175 2.4025 -47.3475 1.7425 -47.6875 1.0625 C-31.78846582 -0.0313062 -15.93089609 -0.0548877 0 0 Z " fill="#55C18C" transform="translate(348.6875,289.9375)"/>
<path d="M0 0 C2.375 0.875 2.375 0.875 4.375 3.875 C4.625 6.4375 4.625 6.4375 4.375 8.875 C2.375 10.875 2.375 10.875 0.5 11.140625 C-0.20125 11.13546875 -0.9025 11.1303125 -1.625 11.125 C-2.32625 11.13015625 -3.0275 11.1353125 -3.75 11.140625 C-5.625 10.875 -5.625 10.875 -7.625 8.875 C-7.47862273 5.43513404 -7.20959664 3.52223199 -4.875 0.9375 C-2.625 -0.125 -2.625 -0.125 0 0 Z " fill="#52C58F" transform="translate(338.625,223.125)"/>
<path d="M0 0 C0.31785906 3.49644963 0.39644605 5.397402 -1.5625 8.375 C-4.84011302 10.56007535 -7.14202645 10.36395977 -11 10 C-11.33 9.67 -11.66 9.34 -12 9 C-11.9375 5.625 -11.9375 5.625 -11 2 C-7.12379391 -0.81905897 -4.56952248 -1.47837492 0 0 Z " fill="#55C491" transform="translate(272,205)"/>
<path d="M0 0 C3.60513612 1.20171204 3.97278863 2.09560304 5.91796875 5.25390625 C6.44970703 6.10791016 6.98144531 6.96191406 7.52929688 7.84179688 C8.07650391 8.73962891 8.62371094 9.63746094 9.1875 10.5625 C9.74630859 11.46419922 10.30511719 12.36589844 10.88085938 13.29492188 C12.26160292 15.52535376 13.63421377 17.76038899 15 20 C14.34 20.33 13.68 20.66 13 21 C12.67 21.99 12.34 22.98 12 24 C0 4.89320388 0 4.89320388 0 0 Z " fill="#56C295" transform="translate(178,192)"/>
<path d="M0 0 C0.66 0.33 1.32 0.66 2 1 C-0.3125 3.5 -0.3125 3.5 -3 6 C-3.99 6 -4.98 6 -6 6 C-6 6.99 -6 7.98 -6 9 C-7.32 9 -8.64 9 -10 9 C-10.33 9.99 -10.66 10.98 -11 12 C-12.65 12 -14.3 12 -16 12 C-16 12.99 -16 13.98 -16 15 C-23.92 15 -31.84 15 -40 15 C-40 14.67 -40 14.34 -40 14 C-32.41 14 -24.82 14 -17 14 C-17 13.34 -17 12.68 -17 12 C-17.99 11.67 -18.98 11.34 -20 11 C-20 10.67 -20 10.34 -20 10 C-18.9275 10.020625 -17.855 10.04125 -16.75 10.0625 C-10.10868518 9.32192173 -4.98170071 4.10990308 0 0 Z " fill="#5BC693" transform="translate(356,301)"/>
<path d="M0 0 C4 1 4 1 5.8125 3.875 C7 7 7 7 6 10 C2.7 10 -0.6 10 -4 10 C-2.68 6.7 -1.36 3.4 0 0 Z " fill="#4DCB90" transform="translate(413,138)"/>
<path d="M0 0 C2.64 0 5.28 0 8 0 C8 0.66 8 1.32 8 2 C8.91523438 1.97679687 9.83046875 1.95359375 10.7734375 1.9296875 C11.96195312 1.91164062 13.15046875 1.89359375 14.375 1.875 C15.55835938 1.85179687 16.74171875 1.82859375 17.9609375 1.8046875 C21 2 21 2 23 4 C23.1721221 6.8706466 23.23223075 9.63252342 23.1875 12.5 C23.18685547 13.28503906 23.18621094 14.07007813 23.18554688 14.87890625 C23.14046848 20.71906304 23.14046848 20.71906304 22 23 C21.34 23 20.68 23 20 23 C20 17.06 20 11.12 20 5 C16.1474129 3.07370645 11.30549083 3.23700767 7.03320312 2.83789062 C5.01394245 2.62579066 3.0050126 2.31988209 1 2 C0.67 1.34 0.34 0.68 0 0 Z " fill="#5CC393" transform="translate(329,209)"/>
<path d="M0 0 C2.625 -0.1875 2.625 -0.1875 5 0 C5.625 2.8125 5.625 2.8125 6 6 C4 9 4 9 1.4375 9.75 C0.2309375 9.87375 0.2309375 9.87375 -1 10 C-2 9 -2 9 -2.1875 6.125 C-2 3 -2 3 0 0 Z " fill="#52C890" transform="translate(431,120)"/>
<path d="M0 0 C1.5 1.3125 1.5 1.3125 3 3 C3 3.99 3 4.98 3 6 C3.33 6.66 3.66 7.32 4 8 C2.37509046 8.02698189 0.75005367 8.04638757 -0.875 8.0625 C-1.77992188 8.07410156 -2.68484375 8.08570313 -3.6171875 8.09765625 C-6 8 -6 8 -8 7 C-8.33 7.66 -8.66 8.32 -9 9 C-9.66 9 -10.32 9 -11 9 C-11 8.34 -11 7.68 -11 7 C-13.31 6.67 -15.62 6.34 -18 6 C-18 5.67 -18 5.34 -18 5 C-9.585 4.505 -9.585 4.505 -1 4 C-0.67 2.68 -0.34 1.36 0 0 Z " fill="#57C295" transform="translate(341,407)"/>
<path d="M0 0 C3.459261 3.18616144 5.38467648 5.61555044 7 10 C7.9793879 11.02019573 8.97895449 12.02149805 10 13 C10.68268138 14.32520503 11.3507041 15.65812182 12 17 C12.66 17.66 13.32 18.32 14 19 C14 19.99 14 20.98 14 22 C14.66 22 15.32 22 16 22 C15.67 23.32 15.34 24.64 15 26 C10.84060302 20.35881785 7.05128267 14.5739392 3.5625 8.5 C3.20865234 7.88882324 2.85480469 7.27764648 2.49023438 6.64794922 C0 2.25058981 0 2.25058981 0 0 Z " fill="#5CC192" transform="translate(63,133)"/>
<path d="M0 0 C1.03125 0.04833984 2.0625 0.09667969 3.125 0.14648438 C4.74535156 0.2305957 4.74535156 0.2305957 6.3984375 0.31640625 C7.48640625 0.36861328 8.574375 0.42082031 9.6953125 0.47460938 C12.3882956 0.604534 15.08093086 0.73950787 17.7734375 0.87890625 C17.7734375 1.20890625 17.7734375 1.53890625 17.7734375 1.87890625 C17.16346924 1.88825195 16.55350098 1.89759766 15.92504883 1.90722656 C13.14454263 1.96111951 10.36568488 2.04472694 7.5859375 2.12890625 C6.62623047 2.14308594 5.66652344 2.15726562 4.67773438 2.171875 C-0.97064134 2.36732053 -4.0342124 2.75310139 -8.2265625 6.87890625 C-10.5390625 6.62890625 -10.5390625 6.62890625 -12.2265625 5.87890625 C-6.19968078 -0.30657762 -6.19968078 -0.30657762 0 0 Z " fill="#4DC48B" transform="translate(182.2265625,290.12109375)"/>
<path d="M0 0 C1.65 0.33 3.3 0.66 5 1 C5.33 1.99 5.66 2.98 6 4 C4.25 6 4.25 6 2 8 C0.68 8 -0.64 8 -2 8 C-2.6875 6.25 -2.6875 6.25 -3 4 C-1.5625 1.75 -1.5625 1.75 0 0 Z " fill="#4FC996" transform="translate(421,130)"/>
<path d="M0 0 C2 2 2 2 2 4 C1.34 4 0.68 4 0 4 C0 4.66 0 5.32 0 6 C0.66 6 1.32 6 2 6 C2 6.66 2 7.32 2 8 C2.66 8 3.32 8 4 8 C4 8.66 4 9.32 4 10 C2.35 10 0.7 10 -1 10 C-1 9.34 -1 8.68 -1 8 C-2.65 7.67 -4.3 7.34 -6 7 C-6 6.34 -6 5.68 -6 5 C-4.04072937 3.2856382 -2.04119788 1.61594832 0 0 Z " fill="#49CC8E" transform="translate(307,184)"/>
<path d="M0 0 C2.51934101 1.81077635 4.167407 3.9504095 6 6.4375 C2 6.4375 2 6.4375 0.25 5.0625 C-1 3.4375 -1 3.4375 -1 1.4375 C-1.66 1.4375 -2.32 1.4375 -3 1.4375 C-3.33 2.7575 -3.66 4.0775 -4 5.4375 C-6.97 4.9425 -6.97 4.9425 -10 4.4375 C-3.20502092 -0.90141213 -3.20502092 -0.90141213 0 0 Z " fill="#55C491" transform="translate(106,70.5625)"/>
<path d="M0 0 C5.5952381 0.5952381 5.5952381 0.5952381 8 3 C7.01 3.495 7.01 3.495 6 4 C6.66 4.33 7.32 4.66 8 5 C7.67 5.99 7.34 6.98 7 8 C6.41798828 7.29423828 6.41798828 7.29423828 5.82421875 6.57421875 C3.52497076 4.59007113 1.78688189 4.31466837 -1.1875 3.8125 C-2.53908203 3.57466797 -2.53908203 3.57466797 -3.91796875 3.33203125 C-4.60503906 3.22246094 -5.29210937 3.11289063 -6 3 C-6 2.34 -6 1.68 -6 1 C-4.7934375 1.0309375 -4.7934375 1.0309375 -3.5625 1.0625 C-1.06645115 1.29633621 -1.06645115 1.29633621 0 0 Z " fill="#57BF90" transform="translate(195,236)"/>
<path d="M0 0 C0 3.87859244 -1.45065061 6.46748339 -3 10 C-3.37308631 11.32276056 -3.73046415 12.65232077 -4 14 C-3.34 14 -2.68 14 -2 14 C-2 15.65 -2 17.3 -2 19 C-4.79584818 16.0825932 -5.85880017 13.12628588 -6.28125 9.10546875 C-5.74931258 5.12332616 -2.84217401 2.63621937 0 0 Z " fill="#60BF94" transform="translate(57,99)"/>
<path d="M0 0 C1.65 0.33 3.3 0.66 5 1 C5 1.99 5 2.98 5 4 C4.01 4 3.02 4 2 4 C2.33 4.99 2.66 5.98 3 7 C1.35 7 -0.3 7 -2 7 C-2.33 6.34 -2.66 5.68 -3 5 C-1.5625 2.375 -1.5625 2.375 0 0 Z " fill="#49CC8C" transform="translate(266,206)"/>
<path d="M0 0 C0.99 0 1.98 0 3 0 C3 0.66 3 1.32 3 2 C4.32 2.33 5.64 2.66 7 3 C6.67 3.99 6.34 4.98 6 6 C3.69 6 1.38 6 -1 6 C-1.042721 4.33388095 -1.04063832 2.66617115 -1 1 C-0.67 0.67 -0.34 0.34 0 0 Z " fill="#48CD8D" transform="translate(267,181)"/>
<path d="M0 0 C0.99 0.33 1.98 0.66 3 1 C3 1.66 3 2.32 3 3 C3.58007812 2.855625 4.16015625 2.71125 4.7578125 2.5625 C9.26659675 1.49110572 13.33054247 0.76054064 18 1 C14.19726926 3.38171031 10.10996803 3.65510945 5.75 4.125 C4.63238281 4.25455078 4.63238281 4.25455078 3.4921875 4.38671875 C1.66222154 4.59786867 -0.16879879 4.79984545 -2 5 C-1.34 3.35 -0.68 1.7 0 0 Z " fill="#5BC694" transform="translate(332,418)"/>
<path d="M0 0 C0.66 0 1.32 0 2 0 C2 0.66 2 1.32 2 2 C3.98 2.66 5.96 3.32 8 4 C7.67 6.64 7.34 9.28 7 12 C0 3.55172414 0 3.55172414 0 0 Z " fill="#58C390" transform="translate(191,216)"/>
<path d="M0 0 C1.32 0 2.64 0 4 0 C3.55530671 5.03985731 1.28656638 7.37634988 -2 11 C-2 8 -2 8 -1 6 C-1.66 5.67 -2.32 5.34 -3 5 C-2.34 5 -1.68 5 -1 5 C-0.67 3.35 -0.34 1.7 0 0 Z " fill="#59BD8F" transform="translate(323,172)"/>
<path d="M0 0 C0.66 0.33 1.32 0.66 2 1 C0.6062718 5.43458973 -1.60582235 7.87378374 -5 11 C-5.99 10.67 -6.98 10.34 -8 10 C-8 9.34 -8 8.68 -8 8 C-7.01 8 -6.02 8 -5 8 C-4.67 7.01 -4.34 6.02 -4 5 C-3.34 4.34 -2.68 3.68 -2 3 C-1.34 2.01 -0.68 1.02 0 0 Z " fill="#54C691" transform="translate(221,243)"/>
<path d="M0 0 C1.5625 1.0625 1.5625 1.0625 3 3 C2.6875 6.6875 2.6875 6.6875 2 10 C0.02 10 -1.96 10 -4 10 C-4.33 10.99 -4.66 11.98 -5 13 C-5 11.35 -5 9.7 -5 8 C-4.01 8 -3.02 8 -2 8 C-1.67 6.68 -1.34 5.36 -1 4 C-0.01 4.99 0.98 5.98 2 7 C1.34 4.69 0.68 2.38 0 0 Z " fill="#65C297" transform="translate(447,109)"/>
<path d="M0 0 C0.66 0 1.32 0 2 0 C3.28317892 3.84953676 3.06643637 6.94738135 3 11 C1 9.9375 1 9.9375 -1 8 C-1.3125 4.375 -1.3125 4.375 -1 1 C-0.67 0.67 -0.34 0.34 0 0 Z " fill="#4BC98D" transform="translate(120,202)"/>
<path d="M0 0 C2.31 0.33 4.62 0.66 7 1 C6.34 1.66 5.68 2.32 5 3 C3.68 3 2.36 3 1 3 C0.34 4.98 -0.32 6.96 -1 9 C-1.66 9 -2.32 9 -3 9 C-2.01 6.03 -1.02 3.06 0 0 Z " fill="#5BBF8F" transform="translate(254,175)"/>
<path d="M0 0 C0.33 0 0.66 0 1 0 C1.33 3.96 1.66 7.92 2 12 C0.02 12.66 -1.96 13.32 -4 14 C-3.2884375 12.205625 -3.2884375 12.205625 -2.5625 10.375 C-1.26517227 6.93585762 -0.45763049 3.66104396 0 0 Z " fill="#55C18F" transform="translate(348,234)"/>
<path d="M0 0 C0.66 0.33 1.32 0.66 2 1 C-0.3125 3.5 -0.3125 3.5 -3 6 C-3.99 6 -4.98 6 -6 6 C-6 6.99 -6 7.98 -6 9 C-7.65 9 -9.3 9 -11 9 C-7.67149253 5.40521193 -4.01028669 2.77635232 0 0 Z " fill="#54BF8C" transform="translate(356,301)"/>
<path d="M0 0 C0.33 0 0.66 0 1 0 C1.125 5.75 1.125 5.75 0 8 C1.32 8.33 2.64 8.66 4 9 C2.34385343 9.38218767 0.67542976 9.71395102 -1 10 C-2 9 -2 9 -2.1875 6.125 C-2 3 -2 3 0 0 Z " fill="#60BB90" transform="translate(431,120)"/>
<path d="M0 0 C0 0.33 0 0.66 0 1 C-1.62490954 1.02698189 -3.24994633 1.04638757 -4.875 1.0625 C-6.23238281 1.07990234 -6.23238281 1.07990234 -7.6171875 1.09765625 C-10 1 -10 1 -12 0 C-12.33 0.66 -12.66 1.32 -13 2 C-13 1.01 -13 0.02 -13 -1 C-11.58566794 -1.2236337 -10.16832382 -1.42826476 -8.75 -1.625 C-7.56664062 -1.79902344 -7.56664062 -1.79902344 -6.359375 -1.9765625 C-3.67847541 -2.00319395 -2.27305911 -1.36592084 0 0 Z " fill="#5ED49F" transform="translate(345,414)"/>
<path d="M0 0 C0.33 0.66 0.66 1.32 1 2 C1.66 2.33 2.32 2.66 3 3 C0.1875 5.0625 0.1875 5.0625 -3 7 C-3.99 6.67 -4.98 6.34 -6 6 C-4 4 -2 2 0 0 Z " fill="#5BBC92" transform="translate(159,302)"/>
<path d="M0 0 C1.875 0.125 1.875 0.125 4 1 C5.25 4.0625 5.25 4.0625 6 7 C3.5625 6.3125 3.5625 6.3125 1 5 C0.1875 2.375 0.1875 2.375 0 0 Z " fill="#46CE9B" transform="translate(389,134)"/>
<path d="M0 0 C-0.66 1.32 -1.32 2.64 -2 4 C-4.31 3.34 -6.62 2.68 -9 2 C-8 0 -8 0 -6.1875 -0.6875 C-3.81180233 -1.02688538 -2.26664171 -0.72856341 0 0 Z " fill="#54CE95" transform="translate(367,299)"/>
<path d="M0 0 C0.99 0.33 1.98 0.66 3 1 C3 2.32 3 3.64 3 5 C4.32 5.33 5.64 5.66 7 6 C7 6.33 7 6.66 7 7 C5.02 7 3.04 7 1 7 C0.67 4.69 0.34 2.38 0 0 Z " fill="#48CF95" transform="translate(146,156)"/>
<path d="M0 0 C0.4125 0.515625 0.825 1.03125 1.25 1.5625 C2.11625 2.2740625 2.11625 2.2740625 3 3 C5.16299211 2.77242269 5.16299211 2.77242269 7 2 C6.67 2.99 6.34 3.98 6 5 C4.02 5.33 2.04 5.66 0 6 C-1.125 2.25 -1.125 2.25 0 0 Z " fill="#59BE93" transform="translate(419,132)"/>
<path d="M0 0 C2.97 0.495 2.97 0.495 6 1 C-0.39130435 5.26086957 -0.39130435 5.26086957 -4.3125 4.625 C-4.869375 4.41875 -5.42625 4.2125 -6 4 C-4.7934375 3.566875 -4.7934375 3.566875 -3.5625 3.125 C-0.8673532 2.26737432 -0.8673532 2.26737432 0 0 Z " fill="#57C692" transform="translate(365,412)"/>
<path d="M0 0 C-0.33 0.66 -0.66 1.32 -1 2 C-5.29942266 2.90949326 -8.74936599 3.15926382 -13 2 C-13 1.67 -13 1.34 -13 1 C-8.60563789 0.14256349 -4.47427924 -0.08948558 0 0 Z " fill="#58C191" transform="translate(351,203)"/>
<path d="M0 0 C2.72426311 2.35277269 3.8141763 4.62496331 5 8 C3.68 8 2.36 8 1 8 C0.26919734 6.02253397 -0.39421747 4.01927511 -1 2 C-0.67 1.34 -0.34 0.68 0 0 Z " fill="#58C48F" transform="translate(123,92)"/>
<path d="M0 0 C0.66 0.33 1.32 0.66 2 1 C0.4375 3 0.4375 3 -2 5 C-5.75 5.25 -5.75 5.25 -9 5 C-6.06626269 3.04417512 -3.21783702 1.43775696 0 0 Z " fill="#59BF8F" transform="translate(326,198)"/>
<path d="M0 0 C1.0625 1.875 1.0625 1.875 2 4 C1.67 4.66 1.34 5.32 1 6 C-1.5625 6.625 -1.5625 6.625 -4 7 C-4 6.01 -4 5.02 -4 4 C-3.34 4 -2.68 4 -2 4 C-2 3.34 -2 2.68 -2 2 C-1.34 2 -0.68 2 0 2 C0 1.34 0 0.68 0 0 Z " fill="#43D094" transform="translate(373,123)"/>
<path d="M0 0 C0.33 0.99 0.66 1.98 1 3 C1.66 3.33 2.32 3.66 3 4 C0 6 0 6 -2 6 C-3.98 6.99 -3.98 6.99 -6 8 C-4.02 5.36 -2.04 2.72 0 0 Z " fill="#5DC092" transform="translate(441,122)"/>
<path d="M0 0 C-0.33 0.99 -0.66 1.98 -1 3 C-1 3.99 -1 4.98 -1 6 C-2.65 4.02 -4.3 2.04 -6 0 C-3.50907189 -1.24546405 -2.58919267 -0.7767578 0 0 Z " fill="#5EBD90" transform="translate(434,95)"/>
<path d="M0 0 C2.475 0.495 2.475 0.495 5 1 C5 1.66 5 2.32 5 3 C5.99 3.33 6.98 3.66 8 4 C6 5 6 5 2.875 4.0625 C1.92625 3.711875 0.9775 3.36125 0 3 C0 2.01 0 1.02 0 0 Z " fill="#57C390" transform="translate(232,220)"/>
<path d="M0 0 C0.103125 0.639375 0.20625 1.27875 0.3125 1.9375 C0.539375 2.618125 0.76625 3.29875 1 4 C1.99 4.33 2.98 4.66 4 5 C3.67 6.65 3.34 8.3 3 10 C2.34 8.68 1.68 7.36 1 6 C0.34 6.66 -0.32 7.32 -1 8 C-0.67 5.36 -0.34 2.72 0 0 Z " fill="#5CBD8F" transform="translate(287,167)"/>
<path d="M0 0 C0.33 0.99 0.66 1.98 1 3 C1.66 3 2.32 3 3 3 C3.33 2.34 3.66 1.68 4 1 C3.67 2.65 3.34 4.3 3 6 C2.34 6 1.68 6 1 6 C1 6.66 1 7.32 1 8 C0.34 8 -0.32 8 -1 8 C-0.67 5.36 -0.34 2.72 0 0 Z " fill="#52C48E" transform="translate(370,119)"/>
<path d="M0 0 C1.9375 0.6875 1.9375 0.6875 4 2 C4.75 4.625 4.75 4.625 5 7 C4.01 6.67 3.02 6.34 2 6 C0.8125 2.9375 0.8125 2.9375 0 0 Z " fill="#4EC990" transform="translate(444,109)"/>
<path d="M0 0 C0 0.66 0 1.32 0 2 C-2.64 2.33 -5.28 2.66 -8 3 C-8 2.34 -8 1.68 -8 1 C-5.29120665 -0.35439668 -2.99066732 -0.06501451 0 0 Z " fill="#4CCB91" transform="translate(403,79)"/>
<path d="M0 0 C0 0.99 0 1.98 0 3 C-3.3 2.67 -6.6 2.34 -10 2 C-10 1.67 -10 1.34 -10 1 C-6.59437148 0.22157062 -3.49234244 -0.09978121 0 0 Z " fill="#56C198" transform="translate(172,416)"/>
<path d="M0 0 C3.3125 -0.25 3.3125 -0.25 7 0 C7.99 1.32 8.98 2.64 10 4 C6.7 3.01 3.4 2.02 0 1 C0 0.67 0 0.34 0 0 Z " fill="#5DC092" transform="translate(294,253)"/>
<path d="M0 0 C0.66 0.99 1.32 1.98 2 3 C1.34 3 0.68 3 0 3 C-0.33 4.65 -0.66 6.3 -1 8 C-1.99 8.33 -2.98 8.66 -4 9 C-2.94124926 5.59687262 -1.99097846 2.98646769 0 0 Z " fill="#57C191" transform="translate(243,200)"/>
<path d="M0 0 C4.92307692 4.30769231 4.92307692 4.30769231 5.3125 7.8125 C5.209375 8.534375 5.10625 9.25625 5 10 C2.35534962 6.8745041 1.15585285 3.91211733 0 0 Z " fill="#60BF93" transform="translate(56,120)"/>
<path d="M0 0 C1.32 0.66 2.64 1.32 4 2 C3.01 3.485 3.01 3.485 2 5 C0.68 4.67 -0.64 4.34 -2 4 C-1.34 2.68 -0.68 1.36 0 0 Z " fill="#4ACC98" transform="translate(148,237)"/>
<path d="M0 0 C0.99 1.32 1.98 2.64 3 4 C2.34 5.32 1.68 6.64 1 8 C0.01 6.68 -0.98 5.36 -2 4 C-1.34 3.67 -0.68 3.34 0 3 C0 2.01 0 1.02 0 0 Z " fill="#58C193" transform="translate(193,201)"/>
<path d="M0 0 C3 3.75 3 3.75 3 6 C1.35 5.67 -0.3 5.34 -2 5 C-2 4.34 -2 3.68 -2 3 C-1.34 3 -0.68 3 0 3 C0 2.01 0 1.02 0 0 Z " fill="#5BBD91" transform="translate(143,135)"/>
<path d="M0 0 C2.5 2.3125 2.5 2.3125 5 5 C5 5.99 5 6.98 5 8 C4.01 7.67 3.02 7.34 2 7 C0.8125 3.4375 0.8125 3.4375 0 0 Z " fill="#5EC191" transform="translate(112,77)"/>
</svg>
